<svg xmlns="http://www.w3.org/2000/svg" viewBox="0 0 240.87 40.88"><defs><style>.cls-1{fill:#fff;}.cls-2{fill:#989898;}</style></defs><g id="Layer_2" data-name="Layer 2"><g id="Layer_1-2" data-name="Layer 1"><path class="cls-1" d="M47.51,33.48V11H55.4c6.66,0,11.25,4.59,11.25,11.31s-4.5,11.22-11,11.22Zm4-18.9V29.84h3.79c4.5,0,7.24-2.89,7.24-7.58s-2.8-7.68-7.46-7.68Z"/><path class="cls-1" d="M67.55,29.13c0-2.8,2-4.56,5.64-4.84L77.75,24v-.33c0-2.07-1.23-2.9-3.14-2.9-2.22,0-3.46.92-3.46,2.53H68c0-3.3,2.71-5.46,6.84-5.46s6.63,2.22,6.63,6.44v9.25h-3.3l-.28-2.25c-.65,1.57-2.71,2.65-5.08,2.65C69.52,33.88,67.55,32,67.55,29.13Zm10.23-1.82v-.8l-3.17.25c-2.35.22-3.24,1-3.24,2.22,0,1.39.92,2.06,2.62,2.06A3.48,3.48,0,0,0,77.78,27.31Z"/><path class="cls-1" d="M81.82,37.39h2.25a2.73,2.73,0,0,0,3.05-2.12l.43-1.14L81.42,18.25h4l3.92,11.1,4.13-11.1h3.88L89.86,36.87c-1.14,2.84-2.74,4-5.24,4a11.3,11.3,0,0,1-2.8-.34Z"/><path class="cls-1" d="M104.47,17.82a7.76,7.76,0,0,1,8.14,8,8.14,8.14,0,0,1-16.27,0A7.75,7.75,0,0,1,104.47,17.82Zm0,12.67a4.3,4.3,0,0,0,4.38-4.65c0-2.78-1.79-4.66-4.38-4.66s-4.37,1.88-4.37,4.66S101.88,30.49,104.47,30.49Z"/><path class="cls-2" d="M119.24,33.48,127.38,11h4l8.14,22.53h-4.16l-1.82-5.21h-8.41l-1.82,5.21Zm7.09-8.54h6.1l-2.59-7.27a12.9,12.9,0,0,1-.46-1.73,16.8,16.8,0,0,1-.49,1.73Z"/><path class="cls-2" d="M137.89,18.25h3.91l2,6.54c.34,1.2.65,2.52.93,3.94a27.09,27.09,0,0,1,1.05-3.94l2.09-6.54h3.83l2,6.54c.18.61.8,2.89,1,3.91.24-1.14.74-3,1-3.91l2-6.54h4l-5.27,15.23H153l-2.1-6.6a37.54,37.54,0,0,1-1.08-4.22c-.15.71-.43,1.79-1.2,4.29l-2.09,6.53h-3.67Z"/><path class="cls-2" d="M169,17.82a7.76,7.76,0,0,1,8.14,8,8.14,8.14,0,0,1-16.28,0A7.76,7.76,0,0,1,169,17.82Zm0,12.67a4.3,4.3,0,0,0,4.38-4.65c0-2.78-1.79-4.66-4.38-4.66s-4.38,1.88-4.38,4.66A4.3,4.3,0,0,0,169,30.49Z"/><path class="cls-2" d="M178.57,33.48V10.55h3.76v9.92a6,6,0,0,1,5.34-2.71c4.34,0,7,3.39,7,8.2s-2.86,7.92-7.24,7.92a5.55,5.55,0,0,1-5.12-2.77l-.24,2.37Zm8.08-3c2.65,0,4.22-1.91,4.22-4.63s-1.57-4.65-4.22-4.65-4.28,1.91-4.28,4.65S184.06,30.43,186.65,30.43Z"/><path class="cls-2" d="M195.22,25.87c0-4.78,3.11-8.08,7.58-8.08s7.46,3.05,7.46,7.8v1.14l-11.47,0c.28,2.68,1.7,4,4.2,4,2.06,0,3.42-.8,3.85-2.25h3.48c-.64,3.33-3.42,5.33-7.39,5.33C198.39,33.88,195.22,30.58,195.22,25.87Zm3.67-1.51h7.64a3.38,3.38,0,0,0-3.7-3.49A3.7,3.7,0,0,0,198.89,24.36Z"/><path class="cls-2" d="M211.8,33.48V10.55h3.73V24.63l5.92-6.38h4.72l-5.8,6L226,33.48h-4.31l-4-6.41-2.22,2.31v4.1Z"/><path class="cls-2" d="M240.87,18.25V33.48h-3.48l-.28-2a6,6,0,0,1-4.93,2.43c-3.52,0-5.58-2.37-5.58-6.1V18.25h3.76v8.2c0,2.9,1.14,4.07,3.23,4.07,2.38,0,3.52-1.39,3.52-4.28v-8Z"/><polygon class="cls-1" points="12.09 11.16 6.44 11.16 0 22.32 6.44 33.48 12.09 33.48 5.65 22.32 12.09 11.16"/><polygon class="cls-2" points="25.93 11.16 31.58 11.16 38.02 22.32 31.58 33.48 25.93 33.48 32.37 22.32 25.93 11.16"/><rect class="cls-1" x="14.66" width="5.65" height="33.48"/></g></g></svg>