<svg xmlns="http://www.w3.org/2000/svg" viewBox="0 0 240.87 41.58"><defs><style>.cls-1{fill:#231f20;}.cls-2{fill:#989898;}</style></defs><g id="Layer_2" data-name="Layer 2"><g id="Layer_1-2" data-name="Layer 1"><path class="cls-1" d="M47.51,34.18V11.65H55.4c6.66,0,11.25,4.59,11.25,11.31s-4.5,11.22-11,11.22Zm4-18.9V30.54h3.79c4.5,0,7.24-2.9,7.24-7.58s-2.8-7.68-7.46-7.68Z"/><path class="cls-1" d="M67.55,29.83c0-2.8,2-4.56,5.64-4.84l4.56-.34v-.33c0-2.07-1.23-2.9-3.15-2.9-2.21,0-3.45.92-3.45,2.53H68c0-3.3,2.71-5.46,6.84-5.46s6.63,2.22,6.63,6.44v9.25h-3.3l-.28-2.25c-.65,1.57-2.71,2.65-5.08,2.65C69.52,34.58,67.55,32.7,67.55,29.83ZM77.78,28v-.8l-3.18.25c-2.34.22-3.23,1-3.23,2.22,0,1.39.92,2.06,2.62,2.06A3.48,3.48,0,0,0,77.78,28Z"/><path class="cls-1" d="M81.82,38.09h2.25A2.73,2.73,0,0,0,87.12,36l.43-1.14L81.42,19h4l3.92,11.1L93.44,19h3.88L89.86,37.57c-1.14,2.84-2.74,4-5.24,4a11.3,11.3,0,0,1-2.8-.34Z"/><path class="cls-1" d="M104.47,18.52a7.76,7.76,0,0,1,8.14,8,8.14,8.14,0,0,1-16.27,0A7.75,7.75,0,0,1,104.47,18.52Zm0,12.67a4.3,4.3,0,0,0,4.38-4.65c0-2.78-1.79-4.66-4.38-4.66s-4.37,1.88-4.37,4.66S101.88,31.19,104.47,31.19Z"/><path class="cls-2" d="M119.24,34.18l8.13-22.53h4l8.14,22.53h-4.16L133.57,29h-8.42l-1.81,5.21Zm7.09-8.54h6.1l-2.59-7.27a11.55,11.55,0,0,1-.46-1.73,14.87,14.87,0,0,1-.5,1.73Z"/><path class="cls-2" d="M137.89,19h3.91l2,6.54c.34,1.2.65,2.52.93,3.94a27.09,27.09,0,0,1,1.05-3.94L147.87,19h3.82l2,6.54c.18.61.8,2.89,1,3.91.24-1.14.73-3,1-3.91l2-6.54h4l-5.27,15.23H153l-2.1-6.6a37.54,37.54,0,0,1-1.08-4.22c-.15.71-.43,1.79-1.2,4.28l-2.09,6.54h-3.67Z"/><path class="cls-2" d="M169,18.52a7.75,7.75,0,0,1,8.13,8,8.14,8.14,0,0,1-16.27,0A7.76,7.76,0,0,1,169,18.52Zm0,12.67c2.59,0,4.37-1.88,4.37-4.65s-1.78-4.66-4.37-4.66-4.38,1.88-4.38,4.66A4.3,4.3,0,0,0,169,31.19Z"/><path class="cls-2" d="M178.57,34.18V11.25h3.76v9.92a6,6,0,0,1,5.34-2.71c4.34,0,7,3.39,7,8.2s-2.86,7.92-7.24,7.92a5.55,5.55,0,0,1-5.12-2.77l-.24,2.37Zm8.08-3.05c2.65,0,4.22-1.91,4.22-4.63s-1.57-4.65-4.22-4.65-4.29,1.91-4.29,4.65S184.06,31.13,186.65,31.13Z"/><path class="cls-2" d="M195.22,26.57c0-4.78,3.11-8.08,7.58-8.08s7.46,3.05,7.46,7.8v1.14l-11.47,0c.28,2.68,1.7,4,4.2,4,2.06,0,3.42-.8,3.85-2.25h3.48c-.65,3.33-3.42,5.33-7.4,5.33C198.39,34.58,195.22,31.28,195.22,26.57Zm3.67-1.51h7.64a3.38,3.38,0,0,0-3.7-3.49A3.69,3.69,0,0,0,198.89,25.06Z"/><path class="cls-2" d="M211.8,34.18V11.25h3.73V25.33L221.45,19h4.71l-5.79,6L226,34.18h-4.31l-4-6.41-2.22,2.31v4.1Z"/><path class="cls-2" d="M240.87,19V34.18h-3.49l-.27-2a6,6,0,0,1-4.93,2.44c-3.52,0-5.58-2.37-5.58-6.1V19h3.76v8.2c0,2.9,1.14,4.07,3.23,4.07,2.38,0,3.52-1.39,3.52-4.28V19Z"/><polygon class="cls-1" points="12.09 11.16 6.44 11.16 0 22.32 6.44 33.48 12.09 33.48 5.65 22.32 12.09 11.16"/><polygon class="cls-2" points="25.93 11.16 31.58 11.16 38.02 22.32 31.58 33.48 25.93 33.48 32.37 22.32 25.93 11.16"/><rect class="cls-1" x="14.66" width="5.65" height="33.48"/></g></g></svg>