<svg width="506" height="387" viewBox="0 0 506 387" fill="none" xmlns="http://www.w3.org/2000/svg">
<path fill-rule="evenodd" clip-rule="evenodd" d="M183.878 97.9951C183.529 103.806 183.18 109.616 182.832 115.427C185.075 114.769 199.342 110.488 198.46 114.828C197.828 117.941 193.817 121.309 191.773 123.476C189.893 125.472 187.956 127.415 185.97 129.302C189.62 127.877 193.301 126.527 197.008 125.265C199.813 124.31 202.639 123.377 205.513 122.661C206.58 122.395 209.461 121.31 210.469 122.05C213.118 123.994 198.747 138.312 196.778 140.33C199.561 139.01 202.412 137.81 205.311 136.781C207.404 136.039 213.87 133.199 215.722 135.624C217.705 138.218 212.794 144.175 211.431 146.063C209.48 148.77 207.365 151.366 205.146 153.849C214.369 162.296 225.207 169.815 236.742 174.489C245.199 177.916 253.507 178.788 262.431 176.907C271.6 174.975 280.392 171.27 288.751 167.034C293.66 164.546 298.504 161.853 303.118 158.829C301.216 156.469 299.369 154.06 297.574 151.614C295.013 148.122 291.865 144.306 290.405 140.149C288.975 136.08 294.338 136.875 296.91 137.096C300.634 137.416 304.349 138.095 308 138.907C305.419 137.076 302.884 135.172 300.401 133.207C297.165 130.645 292.847 127.748 290.729 124.063C288.866 120.822 292.954 121.64 294.845 122.065C299.353 123.078 303.739 124.803 308.038 126.486C311.186 127.719 314.315 129.01 317.413 130.369C315.49 128.664 313.631 126.877 311.845 125.025C309.443 122.535 306.205 119.494 305.128 116.065C302.936 109.082 317.685 114.349 320.203 115.427C319.737 108.194 319.273 100.96 318.808 93.7266C299.278 99.0256 279.749 104.326 260.219 109.625C258.109 110.198 255.467 111.445 253.266 111.512C251.273 111.573 248.865 110.657 246.921 110.279L211.58 103.393C202.346 101.594 193.112 99.7946 183.878 97.9951Z" fill="#FFCF68"/>
<path fill-rule="evenodd" clip-rule="evenodd" d="M393.779 346.796C391.67 348.026 389.2 348.976 386.858 349.613C385.482 349.988 383.209 351.145 382.001 350.085C381.421 349.576 381.288 348.42 380.945 347.75C380.404 346.69 379.633 345.774 378.912 344.837C377.163 342.566 375.344 340.374 373.44 338.237C372.537 337.225 370.889 334.861 369.3 335.016C367.318 335.21 367.366 338.007 367.862 339.436C369.444 343.985 374.229 347.951 377.356 351.378C376.561 352.626 372.195 352.477 370.983 352.185C369.132 351.74 368.945 350.396 368.101 348.858C366.125 345.266 362.117 343.256 358.823 341.144C357.621 340.373 355.069 338.239 353.503 338.776C352.02 339.285 352.084 341.218 352.556 342.479C353.27 344.387 355.3 345.709 356.802 346.915C358.804 348.522 360.635 350.27 362.303 352.237C359.898 352.437 357.502 352.783 355.104 352.984C352.203 353.228 349.785 351.605 347.114 350.685C344.632 349.83 342.16 349.107 339.72 348.122C336.98 347.015 334.11 346.63 331.346 345.659C320.5 341.85 309.873 337.059 299.422 332.23C294.442 329.928 289.564 327.626 284.375 325.825C280.593 324.512 274.651 321.896 273.746 317.302C273.269 314.875 275.008 312.265 275.264 309.84C275.565 306.987 275.328 303.848 274.476 301.111C273.725 298.699 272.48 296.466 271.499 294.151C270.356 291.453 271.379 291.497 273.6 291.19C276.257 290.822 279.358 289.297 281.856 288.303C284.734 287.158 287.586 285.559 290.221 283.913C292.605 282.426 294.679 280.508 296.577 278.425C298.507 276.307 299.757 273.796 301.623 271.626C308.511 280.264 315.058 289.034 322.377 297.299C325.831 301.2 329.588 304.426 333.845 307.392C335.622 308.631 337.386 310.046 339.322 311.026C341.744 312.251 344.451 313.011 346.94 314.13C356.484 318.418 365.593 323.106 374.496 328.64C378.804 331.316 382.419 334.385 386.211 337.742C387.392 338.788 397.063 344.88 393.779 346.796ZM281.823 276.027C280.28 276.74 278.81 277.665 277.165 278.122C277.631 275.228 280.28 270.862 283.676 271.342C284.973 271.526 285.952 272.553 285.382 273.97C284.864 275.257 282.922 275.52 281.823 276.027ZM174.469 197.522C172.721 198.507 171.092 199.08 170.066 196.967C170.826 196.812 174.275 196.343 174.469 197.522ZM171.558 191.548C170.207 191.131 171.287 190.691 171.752 190.187C172.114 189.795 173.314 188.418 173.733 188.191C175.587 187.19 177.019 190.915 177.906 192.124C175.808 191.934 173.6 192.18 171.558 191.548ZM186.005 204.447C183.444 204.89 183.728 201.622 183.805 199.967C184.345 200.639 188.002 204.103 186.005 204.447ZM194.493 198.804C191.37 199.341 189.307 193.84 189.867 191.433C190.359 189.314 192.779 188.13 194.706 187.817C196.572 187.514 199.172 187.928 199.727 190.124C200.217 192.064 196.573 198.445 194.493 198.804ZM268.403 281.849C266.159 282.552 263.96 282.641 261.705 283.331C259.146 284.114 256.778 284.044 254.214 284.578C253.171 284.794 250.357 286.344 249.34 285.998C248.332 285.655 246.873 282.465 246.294 281.636C250.83 279.713 254.7 277.23 257.69 273.178C260.068 269.956 262.617 265.129 261.122 260.971C259.435 256.282 253.62 255.264 249.742 257.223C247.908 258.149 246.09 259.3 244.578 260.712C242.849 262.325 242.169 264.087 241.049 266.077C239.916 268.089 239.121 266.97 237.989 265.26C237.022 263.799 237.148 262.325 235.939 260.883C235.322 260.148 234.367 259.438 234.046 258.488C233.842 257.886 234.271 256.818 233.885 256.344C233.34 255.677 232.678 256.46 232.222 255.865C231.891 255.434 231.999 254.448 231.657 253.908C231.36 253.6 231.031 253.338 230.666 253.12C230.223 252.897 230.142 252.618 230.423 252.283C230.071 251.619 230.41 251.394 229.657 250.586C228.482 249.326 227.41 248.118 226.574 246.631C226.192 245.95 226.229 244.941 225.754 244.352C225.103 243.542 224.017 243.664 223.457 242.663C222.958 241.77 223.292 240.21 222.468 239.4C222.035 239.273 221.6 239.149 221.166 239.027C220.839 238.703 220.648 238.31 220.594 237.848C220.137 237.13 220.046 236.287 219.469 235.529C218.364 234.079 216.878 232.739 215.902 231.21C214.876 229.602 215.42 229.332 217.202 228.757C218.809 228.237 220.277 227.756 221.767 226.872C228.654 222.785 235.183 211.943 224.251 208.631C220.195 207.402 216.862 204.096 212.364 205.395C210.414 205.959 208.565 207.158 207.11 208.581C206.105 209.565 205.174 212.196 203.94 212.7C201.721 213.606 202.659 211.342 202.03 210.302C201.729 209.806 200.519 209.234 200.07 208.782C199.544 208.252 199.035 207.584 198.669 206.929C197.991 205.713 197.576 205.035 196.597 204.045C196.229 203.671 194.387 201.74 196.048 201.992C195.375 199.902 196.357 199.587 197.713 198.06C199.307 196.266 200.952 193.774 200.961 191.261C200.979 186.436 195.373 184.274 191.851 187.138C191.135 187.721 186.897 193.347 187.764 189.759C188.232 187.824 192.561 182.773 194.567 184.08C192.318 180.738 187.152 188.853 185.946 190.514C184.92 188.586 184.847 187.078 183.148 185.586C181.765 187.848 182.495 185.376 182.191 184.873C181.532 183.788 181.894 185.029 181.536 184.643C181.092 184.163 180.391 183.785 179.918 183.149C179.107 184.27 179.431 183.064 179.183 182.645C178.602 181.665 178.826 181.097 177.831 180.245C177.107 179.626 175.68 178.664 174.705 178.576C173.581 178.474 173.269 178.913 172.124 178.588C170.667 178.175 168.833 177.54 169.538 180.026C170.05 181.832 172.133 182.859 172.589 184.704C173.048 186.561 171.247 188.433 170.373 189.956C169.251 191.91 168.333 191.75 166.3 192.191C165.001 192.473 163.267 193.075 164.382 194.682C165.177 195.83 167.042 195.588 168.092 196.268C169.565 197.222 169.544 199.573 171.425 199.982C173.495 200.433 174.681 198.082 176.427 197.514C177.668 197.11 181.514 197.155 182.49 198.106C183.822 199.401 182.671 201.875 183.006 203.484C183.505 205.87 185.088 206.016 187.089 206.092C189.554 206.186 190.42 208.599 191.745 210.513C194.849 214.996 197.547 219.775 200.727 224.198C202.135 226.157 204.194 227.899 205.346 230.025C206.77 232.649 204.794 234.164 203.089 236.048C200.861 238.51 199.197 241.312 197.265 244.003C195.548 246.395 193.413 245.799 190.669 245.799C191.281 244.513 192.016 243.712 193.521 243.867C191.948 241.909 190.69 244.15 189.669 245.39C188.193 247.186 186.268 247.619 184.372 248.799C183.701 249.216 180.046 251.923 181.157 252.848C181.283 252.952 187.332 248.894 188.021 248.522C188.021 250.02 187.7 251.577 187.906 253.066C188.056 254.159 188.81 255.298 188.649 256.434C188.345 258.578 185.628 260.267 184.462 261.938C183.583 263.195 183.795 264.186 183.349 265.536C182.941 266.767 183.155 266.395 182.14 266.775C180.072 267.55 176.592 267.132 174.72 266.03C173.557 265.347 172.666 264.267 171.722 263.315C171.011 262.597 169.222 261.371 169.025 260.366C168.686 258.637 172.052 255.424 172.718 253.64C174.6 248.606 171.373 244.693 166.352 244.408C167.899 243.19 169.818 244.107 171.449 244.572C168.66 240.631 163.897 243.874 161.532 246.552C159.916 242.385 159.136 237.99 158.149 233.645C157.477 230.687 154.916 225.406 156.058 222.36C156.61 220.888 158.169 220.066 159.247 219.046C160.472 217.885 161.521 216.498 162.416 215.061C164.525 211.678 165.744 207.407 162.839 204.072C163.722 203.924 164.605 203.777 165.487 203.629C164.052 202.253 161.786 202.923 159.924 202.515C158.742 202.256 155.34 202.424 154.551 201.742C153.602 200.922 154.21 197.147 154.244 196.03C154.322 193.42 154.536 190.91 154.819 188.315C155.086 185.864 155.033 183.215 155.529 180.807C155.932 178.853 157.221 178.257 158.708 177.106C162.262 174.352 165.158 171.003 163.944 166.257C164.374 166.187 164.804 166.118 165.234 166.048C163.844 165.023 162.044 165.396 160.498 164.853C161.918 160.777 165.059 153.61 170.16 153.224C170.335 155.047 170.215 157.214 171.421 158.723C172.793 160.44 175.203 160.614 177.062 159.705C178.75 158.88 180.334 157.131 181.111 155.404C181.638 154.234 181.543 152.257 182.466 151.33C183.705 150.086 192.244 150.837 191.982 152.935C191.828 154.169 189.545 156.242 188.907 157.336C187.739 159.337 186.804 161.501 186.375 163.799C185.724 167.289 186.101 171.897 189.576 173.731C193.529 175.818 198.346 173.165 201.587 170.872C203.367 169.613 205.091 168.224 206.717 166.765C207.583 165.989 208.454 165.189 209.217 164.306C209.781 163.654 210.231 162.603 210.925 162.115C212.564 160.962 214.17 162.918 215.557 163.906C217.817 165.516 220.064 167.044 222.49 168.384C227.41 171.102 231.909 174.703 236.26 178.278C240.636 181.875 245.149 185.575 248.694 190.055C246.547 191.402 246.93 191.752 245.975 194.155C245.297 195.859 244.363 197.311 244.255 199.205C244.069 202.475 246.127 205.261 249.251 205.985C250.998 206.389 252.662 206.065 254.281 205.337C255.539 204.771 256.792 203.377 258.107 203.031C260.55 202.388 262.505 207.095 263.874 208.753C269.956 216.115 276.385 223.187 282.112 230.851C282.746 231.699 284.63 233.357 284.783 234.481C285.003 236.095 282.513 237.633 281.481 238.558C280.939 239.043 275.189 244.559 277.119 245.436C277.67 245.686 279.281 242.301 279.683 242.012C281.192 240.928 280.051 243.052 279.961 244.126C279.736 246.795 281.534 248.249 284.061 247.91C286.757 247.549 289.157 245.379 290.826 243.329C292.917 245.798 296.185 249.532 296.79 252.831C297.176 254.938 295.388 260.097 298.726 260.527C299.236 260.592 301.08 259.197 301.424 259.989C301.71 260.65 299.717 261.78 299.429 261.999C298.201 262.934 297.459 263.936 296.467 265.069C295.303 266.399 293.712 267.519 292.402 268.793C291.021 270.135 288.291 273.78 286.47 272.019C285.555 271.134 285.796 269.977 284.33 269.457C282.995 268.984 281.303 269.584 280.063 270.109C278.666 270.699 274.066 272.854 273.556 274.628C272.851 277.074 276.654 274.133 277.329 273.703C276.559 275.699 276.133 278.588 274.169 279.752C272.538 280.719 270.192 281.288 268.403 281.849ZM242.327 266.755C243.633 262.476 251.332 254.847 256.197 257.233C250.527 258.445 246.027 262.403 242.327 266.755ZM245.206 279.008C243.309 277.93 243.411 274.798 242.749 272.965C242.368 271.914 241.608 271.145 241.832 269.979C242.093 268.611 243.804 267.09 244.715 266.104C247.581 262.998 252.625 258.755 257.239 259.467C263.11 260.373 259.13 268.413 257.13 271.181C255.426 273.541 248.859 281.085 245.206 279.008ZM231.508 273.775C225.158 273.343 218.829 272.764 212.565 271.575C210.345 271.154 208.484 271.216 209.755 268.613C210.174 267.753 212.704 262.367 213.275 262.522C213.613 262.613 213.536 266.315 213.636 266.739C214.084 268.645 215.343 270.421 217.466 270.3C220.94 270.102 223.178 265.523 225.007 263.065C226.472 265.073 227.532 267.305 229.005 269.28C229.709 270.224 232.159 272.421 231.508 273.775ZM194.278 248.356C193.213 250.849 191.07 253.22 189.58 255.478C188.737 253.66 188.145 249.484 190.143 248.14C190.9 247.631 194.952 246.779 194.278 248.356ZM216.303 255.779C216.596 254.82 216.92 253.867 217.282 252.933C217.904 254.927 218.221 254.986 216.303 255.779ZM221.738 257.822C222.509 259.154 223.794 260.464 223.592 262.138C223.439 263.405 222.316 264.704 221.513 265.588C220.185 267.049 217.243 269.855 215.319 267.914C213.711 266.293 214.271 261.835 215.019 260.011C216.086 257.405 219.901 254.648 221.738 257.822ZM217.967 255.091C218.409 254.913 217.481 252.005 218.342 251.715C219.093 253.462 219.801 253.934 217.967 255.091ZM205.833 215.957C205.547 214.884 204.89 214.929 205.127 213.602C205.282 212.733 205.959 211.804 206.472 211.115C207.495 209.741 208.845 208.609 210.305 207.752C213.387 205.943 217.619 205.192 220.378 208.024C217.799 208.439 209.891 211.035 209.841 214.633C212.709 214.07 214.965 211.132 217.842 210.206C220.203 209.446 222.764 209.499 225.113 210.302C231.543 212.498 228.869 218.166 225.24 221.847C223.086 224.033 220.502 225.664 217.678 226.791C216.371 227.312 215.569 227.369 214.284 227.107C214.044 227.058 213.763 226.603 213.474 226.505C212.757 226.263 212.965 227.084 212.375 226.715C211.859 226.394 210.76 224.32 210.41 223.726C209.852 222.781 209.592 221.863 208.907 221C208.222 220.137 207.888 218.981 207.254 218.199C206.95 217.824 206.115 217.839 205.891 217.472C205.555 216.922 205.983 216.52 205.833 215.957ZM195.957 258.225C197.419 255.636 199.919 253.437 201.854 251.174C201.972 254.894 199.357 257.441 195.957 258.225ZM197.932 259.421C200.951 258.338 202.613 255.747 202.921 252.606C203.312 248.626 205.762 246.538 207.237 242.963C207.803 241.593 208.462 237.084 210.654 238.375C211.407 238.817 211.853 240.482 212.245 241.234C213.193 243.053 214.271 244.817 215.277 246.603C216.095 248.058 217.323 249.52 216.962 251.271C216.646 252.798 215.633 254.424 215.039 255.864C213.637 259.264 211.795 262.396 210.257 265.721C209.636 267.062 208.901 270.238 207.006 270.222C205.506 270.209 205.673 268.537 204.685 267.963C203.439 267.24 202.021 268.617 200.997 269.188C202.176 267.156 204.238 266.007 206.556 266.389C203.781 263.571 201.905 267.374 199.523 268.22C197.267 269.023 193.263 265.238 191.363 264.165C192.09 262.91 192.747 261.375 193.997 260.549C195.182 259.765 196.638 259.886 197.932 259.421ZM173.394 285.177C173.725 283.554 174.659 282.595 175.251 281.121C175.937 282.908 174.33 283.962 173.394 285.177ZM221.347 295.135C221.185 300.6 220.747 306.05 220.589 311.517C220.516 314.038 220.078 316.443 219.788 318.934C219.542 321.042 219.667 323.111 218.367 324.912C216.316 327.75 212.329 328.566 209.233 329.617C206.96 330.389 204.661 331.09 202.416 331.947C200.396 332.719 198.768 333.889 196.848 334.806C195.13 335.627 193.275 336.114 191.565 336.988C189.796 337.893 188.398 338.995 186.581 339.801C184.406 340.765 182.613 342.48 180.679 343.842C178.976 345.041 177.174 345.966 175.709 347.474C174.336 348.888 172.597 349.508 171.04 350.765C169.394 352.093 167.671 352.957 165.853 353.998C162.127 356.133 157.101 359.779 152.618 357.705C153.9 356.035 156.525 354.43 156.724 352.129C156.984 349.131 154.426 350.235 152.944 351.192C150.7 352.642 149.459 354.392 147.751 356.324C145.754 358.583 143.231 357.063 140.788 356.428C142.459 354.894 144.116 353.346 145.784 351.81C147.192 350.513 149.346 349.111 150.203 347.317C150.816 346.035 150.786 344.278 149.307 343.612C147.653 342.868 145.782 344.438 144.557 345.372C141.304 347.854 139.162 351.001 137.027 354.455C135.891 356.291 135.367 356.15 133.277 355.783C131.062 355.394 128.848 354.979 126.615 354.707C129.572 351.609 132.878 348.252 135.215 344.628C135.972 343.453 136.959 340.357 134.653 340.073C133.702 339.955 131.81 341.937 131.078 342.471C127.874 344.806 124.794 347.751 122.671 351.16C121.97 352.285 121.75 353.537 120.393 353.63C118.618 353.753 115.321 352.026 113.61 351.492C116.881 347.287 120.129 343.051 123.952 339.342C127.463 335.934 130.966 333.458 135.074 330.845C139.476 328.042 143.576 324.817 147.617 321.507C151.486 318.338 155.527 315.35 159.087 311.812C166.201 304.745 172.536 296.618 177.782 288.024C179.01 286.013 180.166 283.95 181.164 281.81C182.103 279.8 182.535 277.397 183.801 275.57C184.239 274.938 184.855 274.469 185.245 273.811C185.613 273.19 185.488 272.44 186.049 271.891C187.346 270.621 189.708 271.386 190.92 272.277C192.87 273.708 194.448 275.445 196.591 276.644C198.746 277.848 201.078 278.725 203.464 279.317C209.042 280.7 214.572 281.835 220.255 282.675C219.67 284.886 221.106 285.235 221.582 287.225C222.16 289.639 221.419 292.676 221.347 295.135ZM167.637 258.258C166.372 256.342 165.243 254.339 164 252.41C163.243 251.235 162.305 249.974 162.952 248.537C164.042 246.115 167.887 245.684 169.973 246.74C174.716 249.14 170.31 256.004 167.637 258.258ZM155.082 214.434C154.645 210.689 156.049 208.032 159.372 206.068C161.74 204.669 163.647 206.581 163.323 209.133C162.832 213.02 158.758 217.343 155.65 219.372C155.447 217.728 155.274 216.08 155.082 214.434ZM154.575 203.719C155.555 202.925 158.18 203.937 159.316 204.006C157.754 205.398 156.192 206.79 154.63 208.181C154.528 207.226 153.671 204.451 154.575 203.719ZM159.845 167.549C167.747 166.502 158.651 175.15 156.36 176.505C156.733 174.665 157.649 167.841 159.845 167.549ZM180.883 152.408C179.822 156.841 171.572 161.676 171.486 154.416C171.454 151.711 172.944 151.93 175.119 151.67C176.36 151.522 181.489 149.875 180.883 152.408ZM152.389 159.273C151.463 161.751 150.72 164.294 149.812 166.776C149.41 167.875 148.937 168.63 148.188 169.5C147.561 170.229 146.815 170.413 146.84 171.563C147.625 171.408 148.24 170.931 148.875 170.47C148.721 172.752 147.93 175.207 147.547 177.48C147.089 180.207 146.707 182.935 146.565 185.7C146.258 191.712 146.255 197.703 146.385 203.719C146.451 206.784 146.48 209.851 146.643 212.913C146.724 214.436 146.815 215.966 147 217.48C147.075 218.091 147.51 219.393 147.241 219.965C146.185 222.214 141.51 216.037 139.479 216.944C139.771 215.232 139.098 215.607 137.973 214.765C137.428 214.358 137.073 213.664 136.505 213.3C136.333 213.111 136.144 212.943 135.937 212.796C135.702 212.469 135.454 212.504 135.194 212.899C132.906 211.505 132.315 208.533 131.087 206.534C130.455 205.506 129.845 205.346 129.737 203.924C129.644 202.686 129.827 201.424 129.778 200.18C129.722 198.777 129.641 197.23 129.255 195.872C128.808 194.295 128.191 194.424 126.991 193.583C127.361 193.418 127.605 193.141 127.723 192.752C127.339 192.822 126.175 193.306 125.885 192.958C125.316 192.274 126.659 192.183 127.012 191.91C125.506 191.228 125.83 190.668 126.374 189.418C126.528 189.065 126.674 188.537 126.805 188.239C127.091 187.587 127.255 188 127.35 187.191C127.439 186.419 126.769 184.902 126.571 184.08C126.24 182.702 126.057 181.511 126.354 180.074C126.595 178.911 127.244 177.858 127.289 176.662C127.302 176.326 126.8 176.214 126.793 175.89C126.784 175.416 127.217 175.208 127.33 174.77C127.618 173.65 127.488 172.464 127.981 171.401C128.424 170.446 129.319 169.21 129.953 168.376C130.392 167.799 131.47 167.148 131.588 166.385C131.666 165.88 130.895 165.938 130.929 165.557C130.976 165.042 131.4 164.875 131.516 164.492C131.837 163.441 131.917 162.431 132.746 161.626C133.79 160.612 134.243 161.037 134.287 159.364C134.307 158.549 133.667 158.423 134.01 157.482C134.197 156.972 134.746 156.67 135.097 156.308C136.141 155.235 136.845 154.281 137.588 152.955C138.245 151.783 139.293 151.101 139.967 150.089C140.843 148.77 139.532 148.116 141.312 147.743C141.059 146.924 140.79 146.262 141.456 145.569C141.876 145.132 142.94 145.399 143.312 144.894C143.738 144.313 143.108 142.937 143.75 142.56C144.272 142.254 145.053 143.198 145.874 142.73C146.498 142.374 147.442 140.408 147.241 139.685C148.857 140.612 148.454 139.974 149.227 138.784C149.401 138.518 149.926 138.459 150.075 138.19C150.374 137.652 150.306 137.103 150.736 136.666C151.452 135.938 152.625 136.125 153.414 135.605C154.066 135.176 154.031 134.713 154.551 134.308C154.995 133.961 155.725 133.895 156.157 133.536C157.003 132.833 157.011 132.091 158.07 131.486C159.323 130.77 160.433 130.16 161.574 129.21C162.317 128.591 163.023 127.494 163.892 127.085C165.095 126.52 166.032 126.48 167.209 125.674C168.059 125.092 168.863 124.13 169.698 123.639C170.328 123.269 170.769 123.349 171.563 123.119C172.992 122.706 173.339 121.334 174.505 120.775C175.305 120.391 176.469 120.742 177.348 120.541C180.082 119.915 182.782 118.565 185.525 117.817C188.874 116.905 192.246 116.106 195.62 115.299C192.52 119.585 188.57 123.452 184.565 126.856C183.25 127.973 176.045 133.067 179.929 135.242C181.488 136.115 184.874 133.295 186.133 132.606C188.667 131.218 191.292 130.107 193.947 128.984C198.239 127.168 203.828 123.939 208.598 124.199C205.695 127.832 202.07 130.748 198.749 133.957C195.697 136.906 191.099 139.673 192.538 144.5C188.251 143.388 184.401 142.073 179.944 142.364C177.947 142.495 175.95 142.25 173.962 142.535C171.801 142.846 169.766 143.584 167.689 144.231C166.046 144.743 164.231 144.783 162.719 145.634C161.989 146.046 161.086 146.633 160.43 147.144C159.554 147.824 159.356 148.275 158.668 149.172C156.217 152.373 153.846 155.373 152.389 159.273ZM138.981 219.852C138.847 219.297 138.726 218.793 138.572 218.16C139.937 219.016 139.937 219.016 138.981 219.852ZM128.67 202.209C128.502 202.445 127.796 202.521 127.59 202.317C127.335 202.062 128.007 201.072 128.114 200.861C128.381 201.069 128.993 201.752 128.67 202.209ZM125.749 195.787C125.93 195.11 126.111 194.435 126.291 193.758C126.513 194.385 127.513 195.078 127.536 195.676C127.549 196.071 125.947 195.874 125.749 195.787ZM126.329 196.715C127.894 197.766 128.058 199.006 128.105 200.82C126.232 200.187 126.5 198.338 126.329 196.715ZM153.554 125.131C153.396 125.566 152.725 126.925 152.234 125.975C152.077 125.671 153.227 125.255 153.554 125.131ZM153.104 123.649C153.491 123.293 154.271 123.736 154.709 123.448C155.016 123.247 154.914 123.042 155.058 122.923C155.087 122.899 155.504 122.038 155.675 121.843C155.977 121.499 156.635 121.285 157.002 120.975C158.027 120.109 158.606 118.969 159.251 117.81C160.02 116.426 160.266 116.266 161.507 115.632C162.363 115.195 163.026 114.661 163.722 113.918C164.525 113.063 164.466 112.451 165.125 111.516C165.45 111.055 165.919 110.997 166.298 110.626C166.753 110.181 166.983 109.558 167.404 109.109C167.585 108.914 168.168 108.915 168.278 108.749C168.418 108.538 168.528 107.696 168.659 107.541C168.909 107.886 169.161 108.232 169.412 108.578C170.401 106.803 171.123 105.338 172.777 104.157C174.515 102.917 176.014 101.103 177.81 99.9926C178.214 99.7432 179.036 99.6384 179.344 99.2705C179.866 98.6482 179.414 98.0949 179.794 97.5663C180.226 96.9677 181.062 97.4524 181.61 97.1944C182.305 96.8674 182.503 95.913 183.397 96.0178C180.458 99.5638 180.495 105.081 180.339 109.509C180.271 111.418 181.45 112.38 179.71 113.78C178.23 114.971 176.143 114.618 174.393 115.402C172.196 116.386 169.846 116.91 167.604 117.768C165.285 118.655 163.421 120.209 161.19 121.237C159.221 122.143 157.878 123.431 156.078 124.549C155.409 124.965 154.372 125.569 153.574 125.072C153.075 124.761 152.452 124.249 153.104 123.649ZM186.298 93.9185C186.426 93.4151 188.935 92.0909 189.552 91.659C190.478 91.0095 191.849 89.4242 192.883 90.0541C193.241 88.5908 194.639 86.9626 195.874 86.6527C197.244 86.3081 199.594 85.1103 200.942 84.0642C201.336 83.7588 201.465 83.3123 201.929 83.0261C202.736 82.5267 203.536 82.7993 204.313 82.1191C204.432 82.0153 205.507 80.2047 205.55 80.2224C205.604 80.4164 205.655 80.6129 205.698 80.8104C206.514 80.3489 207.241 79.982 207.749 79.3934C207.865 79.2599 207.117 78.9127 207.353 78.6482C207.642 78.3242 208.287 78.6865 208.579 78.3791C207.671 82.9767 208.347 88.8946 212.921 91.2257C207.482 91.8248 202.169 90.1574 196.662 91.1813C194.026 91.6721 191.346 92.4769 188.949 93.7135C187.48 94.4713 185.601 97.1849 184.139 95.8672C184.719 95.078 185.605 94.5877 186.298 93.9185ZM212.691 80.6915C214.726 78.1543 217.811 77.1506 220.918 78.0591C224.556 79.1229 223.022 81.7149 222.472 84.5933C221.423 83.0236 219.149 81.467 217.212 81.4197C214.467 81.3531 215.504 83.6857 217.153 84.5217C218.652 85.2806 221.222 85.4922 222.295 86.8734C223.339 88.2168 222.939 90.4144 223.107 91.9992C222.295 91.8757 221.484 91.7528 220.672 91.6298C221.353 87.9316 218.354 87.7528 215.558 86.7097C212.733 85.657 210.377 83.5789 212.691 80.6915ZM221.803 71.5849V75.017C220.672 74.3594 219.541 73.7018 218.409 73.0442C219.541 72.558 220.672 72.0712 221.803 71.5849ZM230.895 99.0085C234.672 100.053 238.423 101.157 242.054 102.597C243.373 103.12 244.817 103.305 246.109 103.895C247.339 104.457 247.524 104.399 247.086 105.498C245.861 108.579 242.956 108.047 240.412 107.576C236.429 106.838 232.529 105.815 228.596 104.853C224.752 103.913 220.826 103.297 217.04 102.118C213.155 100.91 209.369 99.7649 205.372 98.9667C204.206 98.7339 194.979 97.8707 195.05 96.8876C200.86 96.1176 206.843 96.876 212.679 96.9561C218.745 97.0392 225.012 97.3824 230.895 99.0085ZM225.768 87.0916C225.84 84.9732 225.87 82.8482 226.128 80.7429C227.856 82.9188 229.417 83.5698 231.596 81.5305C233.682 79.5779 234.147 78.56 236.793 80.3957C239.085 81.9876 241.255 81.914 243.69 80.5207C245.176 79.6706 247.563 76.1977 249.124 76.9127C249.868 77.2534 250.414 78.627 251.165 79.1324C252.107 79.7653 253.557 80.2047 254.655 80.4506C257.25 81.0301 258.796 79.3284 260.425 77.5078C262.787 74.8684 262.718 76.4013 264.908 78.2319C267.35 80.2733 269.392 79.276 271.604 77.5335C272.951 81.5592 273.455 85.9553 273.836 90.1755C273.964 91.6006 274.444 93.6238 273.188 94.6316C272.304 95.3421 270.427 95.3698 269.361 95.7623C265.553 97.1662 261.895 99.1582 258.711 101.708C257.47 102.701 256.388 103.918 254.693 103.691C253.077 103.476 251.507 102.096 250.207 101.185C248.797 100.198 247.37 99.0765 245.722 98.5258C244.757 98.2033 243.211 98.3202 242.366 97.7291C240.796 96.6296 242.644 93.7462 242.253 91.8107C241.957 90.3413 241.128 87.2776 239.143 88.1387C236.19 89.4202 237.908 94.423 239.533 95.9846C236.21 95.3829 232.532 94.5041 229.327 93.3879C226.852 92.5252 225.679 89.6757 225.768 87.0916ZM281.491 97.4091C288.311 95.456 294.693 94.1393 301.791 93.7835C304.933 93.6258 307.974 93.7255 311.082 93.7543C312.87 93.7709 314.233 92.3 312.804 90.6079C310.827 88.2652 304.794 89.1571 302.121 89.0518C294.957 88.7696 288.389 89.6001 281.604 92.0082C282.321 90.6603 284.045 90.4854 285.226 89.7885C286.675 88.9329 287.66 87.5235 288.28 85.9593C289.89 81.8918 288.269 78.0586 286.584 74.3423C289.894 75.2503 293.318 77.2387 296.645 77.7437C297.344 77.8495 297.791 77.7815 298.408 78.0405C298.787 78.1992 298.907 78.7485 299.376 78.8684C299.603 78.9268 300.147 78.4038 300.404 78.4778C301.418 78.7701 300.616 78.8477 301.257 79.2705C301.766 79.6061 301.724 80.0384 302.657 79.8797C303.071 79.8102 303.519 79.1576 303.737 79.14C304.015 79.1168 303.951 78.7721 304.376 78.8729C305.148 79.0558 305.08 80.0712 305.338 80.5711C305.612 81.1032 305.222 81.8107 306.056 82.1014C306.679 82.3196 306.836 81.6479 307.366 81.6963C307.688 81.7255 308.356 82.1987 308.64 82.4864C309.556 83.4146 310.81 84.4391 312.041 85.0433C311.92 84.9188 312.622 84.62 312.454 84.5499C312.341 84.5031 313.078 84.6845 313.067 84.6819C313.778 84.8467 314.154 85.9599 314.512 86.366C315.174 87.1098 316.2 87.8954 317.126 88.2239C318.728 88.7918 318.679 88.1125 319.264 90.0536C320.402 88.2279 320.839 91.2851 322.251 91.6217C322.982 91.7961 322.897 91.4766 323.561 91.8671C324.018 92.1347 324.322 92.9541 324.666 93.3496C324.813 92.7792 324.961 92.2083 325.108 91.6389C326.125 93.6036 328.32 96.7193 330.728 96.1559C330.728 96.692 330.511 97.333 330.918 97.7906C331.202 98.1105 331.663 97.7472 331.885 97.9332C332.079 98.0954 332.544 98.7414 332.692 98.8478C332.985 99.0574 333.517 99.2106 333.772 99.4192C333.996 99.6031 334.107 100.481 334.356 100.798C334.823 101.395 335.632 101.513 336.013 102.229C336.101 101.524 336.188 100.818 336.275 100.112C337.033 100.71 337.098 101.174 337.284 102.048C337.55 103.292 337.198 103 338.04 103.526C338.867 104.043 339.299 103.985 340.057 104.881C340.8 105.76 340.807 106.302 341.88 105.386C342.08 106.063 342.144 106.939 342.676 107.458C343.079 107.851 344.745 107.867 344.904 108.793C341.774 106.1 343.833 110.191 344.906 108.8C345.132 110.288 346.2 110.769 347.42 111.829C348.557 112.817 348.744 112.745 349.132 114.404C349.123 114.368 349.704 114.735 349.746 114.808C348.637 114.97 350.355 116.233 350.646 116.464C350.858 116.632 351.134 116.23 351.486 116.502C351.889 116.815 352.217 117.524 352.544 117.952C353.433 119.112 354.09 120.109 355.025 121.051C356.034 122.069 356.524 123.356 357.493 124.546C358.568 125.867 359.149 127.386 360.047 128.821C360.901 130.185 362.036 131.28 363.025 132.529C364.602 134.517 365.139 138.894 368.078 139.01C367.906 139.192 368.145 140.548 368.174 140.798C368.312 142.031 368.22 143.216 368.935 144.332C369.099 143.059 369.752 143.55 370.319 144.218C371.263 145.331 370.434 145.051 370.484 146.179C370.545 147.545 370.697 146.488 371.208 147.681C371.607 148.616 371.826 149.223 372.041 150.26C370.38 150.394 369.62 149.011 369.006 147.67C368.75 147.109 368.661 146.188 368.207 145.749C367.723 145.283 367.059 145.246 366.563 144.725C365.61 143.725 365.196 142.166 364.073 141.192C362.803 140.092 362.522 139.573 361.473 138.258C360.312 136.804 358.709 135.783 357.491 134.376C356.272 132.967 356.371 133.736 354.839 133.226C353.21 132.683 350.575 127.46 348.523 129.472C348.604 128.155 346.671 126.917 345.694 126.441C345.272 126.235 344.78 126.421 344.358 126.112C343.899 125.777 343.866 125.131 343.404 124.729C343.404 124.729 342.695 124.904 342.551 124.83C342.259 124.679 342.256 124.144 341.998 123.968C341.283 123.48 340.43 122.969 339.671 122.554C337.826 121.545 336.195 120.302 334.415 119.087C332.89 118.046 331.043 116.166 329.28 115.617C327.741 115.138 326.773 115.382 325.512 114.422C324.825 113.9 325.027 113.724 323.923 113.399C322.872 113.09 322.282 113.249 321.725 112.113C320.751 110.124 321.366 106.243 321.178 104.013C320.978 101.647 320.74 99.2217 320.135 96.9208C319.42 94.2012 318.474 92.7797 315.614 93.4202C309.946 94.6905 304.347 95.8994 298.654 97.0145C287.308 99.2373 276.157 102.864 265.061 106.084C264.216 106.33 259.501 107.43 260.464 104.944C260.908 103.797 263.893 103.37 264.891 103.01C270.376 101.03 275.885 99.0135 281.491 97.4091ZM279.585 92.3484C278.756 92.6704 277.928 92.9924 277.099 93.3149V90.9652C277.928 91.4262 278.756 91.8868 279.585 92.3484ZM276.141 79.9241C276.861 80.5242 278.325 79.08 278.937 78.7872C279.983 78.2879 281.314 77.8591 282.483 77.9613C284.637 78.1518 286.213 80.3151 285.818 82.5081C285.15 86.2189 279.966 87.9735 277.107 89.4242C277.016 88.109 276.598 86.5283 277.502 85.3909C278.288 84.4033 279.81 84.4748 280.534 83.4242C282.357 80.7842 277.417 80.5449 276.312 82.6441C275.877 81.3022 275.441 79.9608 275.005 78.6194C276.057 78.4416 275.595 79.4695 276.141 79.9241ZM281.24 72.6608C280.212 73.339 279.183 74.0173 278.155 74.6955C277.645 72.3478 279.383 72.0389 281.24 72.6608ZM374.973 154.37C373.626 155.025 373.289 153.46 372.32 153.392C373.465 152.675 373.465 152.675 374.973 154.37ZM380.452 188.557C380.62 190.807 380.488 193.083 380.782 195.325C381.006 197.03 381.683 198.617 381.756 200.341C381.914 204.118 380.663 207.964 378.137 210.732C375.748 213.351 372.33 215.605 369.105 216.706C367.652 217.202 366.135 218.301 364.724 218.707C363.163 219.157 361.679 218.178 360.391 219.933C359.532 212.404 360.16 204.537 360.092 196.96C360.024 189.366 360.104 181.771 358.845 174.259C357.723 167.569 355.511 160.045 351.435 154.572C349.779 152.349 347.741 150.529 345.591 148.825C344.475 147.941 343.359 146.996 342.117 146.298C340.205 145.223 338.576 145.372 336.496 145.066C333.52 144.628 330.753 144.257 327.766 145.112C324.985 145.908 321.922 146.814 319.431 148.197C316.95 149.574 314.068 150.142 311.492 151.376C309.74 152.215 306.1 155.02 304.155 154.515C302.274 154.025 299.488 150.769 298.286 149.309C296.75 147.445 295.48 145.284 294.117 143.278C293.639 142.573 292.664 141.484 292.54 140.58C292.324 139.01 292.94 139.523 294.411 139.699C298.192 140.151 301.749 140.866 305.373 142.08C307.176 142.684 310.703 145.128 312.507 143.663C315.261 141.428 311.076 137.586 309.544 136.295C306.932 134.095 303.896 132.462 301.113 130.508C298.155 128.431 294.245 126.22 292.342 123.022C297.899 124.695 303.452 126.611 308.847 128.768C311.315 129.755 313.755 130.797 316.073 132.11C317.376 132.846 320.007 134.84 321.575 133.885C324.984 131.81 317.155 125.783 316.025 124.551C314.269 122.637 312.549 120.741 310.62 119.005C309.319 117.833 307.274 117.01 306.668 115.282C308.829 116.079 310.576 117.641 312.599 118.703C313.658 119.259 314.624 119.579 315.794 119.749C317.041 119.931 317.19 120.134 318.172 120.639C318.937 121.034 319.723 121.56 320.582 121.828C321.194 122.02 322.264 122.053 322.799 122.407C323.072 122.804 323.355 123.196 323.647 123.58C323.973 123.678 324.294 123.791 324.611 123.919C325.085 124.35 325.367 124.946 325.828 125.391C329.179 128.622 333.66 130.934 337.417 133.641C340.971 136.202 344.742 138.518 348.156 141.313C352.083 144.53 356.16 147.987 359.501 151.845C361.389 154.024 362.941 156.496 364.527 158.907C365.676 160.652 367.346 162.1 368.338 163.9C370.503 167.824 372.299 172.065 374.629 175.926C377.002 179.86 380.095 183.769 380.452 188.557ZM348.523 211.324C349.17 208.601 352.822 205.421 355.156 204.22C353.979 207.188 350.846 209.211 348.523 211.324ZM354.544 220.823C352.554 225.034 343.802 225.516 344.989 219.284C345.571 216.231 348.04 214.357 350.16 212.359C351.14 211.436 353.54 208.132 355.057 208.664C354.986 211.039 354.849 213.424 354.854 215.8C354.857 217.385 355.249 219.333 354.544 220.823ZM352.015 172.285C352.822 174.134 353.627 175.674 352.128 177.329C351.452 178.076 349.25 179.71 348.253 179.347C345.054 178.183 351.153 173.116 352.015 172.285ZM332.665 155.827C333.435 155.785 334.183 155.902 334.945 155.854C335.703 155.806 335.783 155.669 336.486 155.766C336.561 155.876 336.635 155.986 336.709 156.097C336.805 156.834 337.185 156.914 337.849 156.337C338.772 156.547 339.372 156.687 340.255 157.195C337.872 158.947 334.973 160.983 332.052 161.571C327.436 162.5 328.712 156.05 332.665 155.827ZM261.898 195.219C261.42 196.201 260.043 193.747 259.702 193.29C260.338 193.288 262.383 194.228 261.898 195.219ZM298.989 169.371C302.575 167.237 306.835 165.363 310.686 163.775C311.364 167.102 308.06 171.398 306.026 173.675C304.381 175.517 302.397 177.427 300.167 178.487C297.755 179.632 295.119 179.129 295.236 175.914C295.279 174.739 295.541 172.848 296.01 171.775C296.615 170.39 297.759 170.102 298.989 169.371ZM250.508 108.837C251.042 108.805 256.84 108.041 256.81 108.777C256.718 110.988 251.09 109.252 250.508 108.837ZM209.503 151.537C212.566 147.684 217.51 143.524 217.582 138.138C217.689 130.213 209.064 134.167 204.728 134.497C207.021 132.199 218.543 122.561 211.728 119.138C209.769 118.154 206.985 119.115 205.019 119.631C201.531 120.545 198.289 122.13 194.862 123.232C197.311 120.574 201.541 117.554 201.402 113.529C201.233 108.63 197.289 109.814 193.879 110.533C192.568 110.809 186.714 113.184 185.614 111.572C185.212 110.981 185.863 110.231 186.001 109.705C186.245 108.775 186.17 108.45 186.178 107.499C186.195 105.582 187.444 103.119 186.425 101.336C186.193 101.741 185.993 102.163 185.827 102.601C185.491 101.563 185.717 100.462 185.381 99.4247C193.894 101.645 202.555 102.86 211.122 104.756C215.459 105.715 219.541 107.367 223.937 108.111C228.371 108.86 232.728 110.007 237.17 110.722C241.223 111.374 245.105 112.46 249.119 113.292C253.031 114.104 257.044 112.325 260.863 111.424C269.416 109.407 277.966 107.341 286.53 105.383C296.413 103.124 306.694 101.192 316.153 97.4237C316.337 102.446 316.731 107.459 317.333 112.447C313.155 110.433 306.955 107.807 302.732 111.411C301.041 112.852 300.52 115.342 301.188 117.459C301.916 119.764 304.143 120.834 305.613 122.569C301.14 121.4 289.601 113.156 287.548 121.489C286.097 127.374 293.173 131.176 296.632 134.489C293.197 133.803 288.596 131.002 286.578 135.503C284.835 139.396 286.935 143.63 289.086 146.84C290.252 148.58 291.563 150.216 292.802 151.902C293.457 152.793 294.097 153.697 294.785 154.562C295.476 155.43 296.779 156.338 297.263 157.272C298.237 159.155 296.271 159.27 294.742 159.95C292.833 160.8 291.193 162.227 289.447 163.363C285.449 165.967 281.955 168.384 277.23 169.216C272.366 170.072 267.682 170.967 262.882 172.162C258.096 173.352 254.19 174.496 249.299 172.957C247.069 172.256 245.252 171.632 242.887 171.764C240.402 171.903 238.949 171.771 236.907 170.202C228.117 163.451 218.576 157.911 209.503 151.537ZM193.656 144.76C197.053 143.021 200.473 141.275 203.983 139.781C206.887 138.544 211.298 137.103 214.478 137.646C213.581 139.994 211.946 141.92 210.191 143.649C208.639 145.178 206.701 147.486 204.824 148.554C203.118 149.522 201.135 147.988 199.453 147.345C197.606 146.639 195.063 146.31 193.656 144.76ZM194.51 153.529C196.203 152.812 199.841 155.219 201.381 155.845C204.407 157.075 207.449 158.36 210.116 160.301C206.86 164.139 203.172 167.648 198.79 170.112C195.907 171.734 191.048 173.594 188.328 170.649C184.912 166.949 189.019 159.41 191.438 156.239C191.518 156.781 191.598 157.323 191.679 157.866C192.451 156.606 193.04 154.152 194.51 153.529ZM256.661 186.373C254.548 186.827 253.831 186.417 252.437 184.765C251.494 183.649 250.568 182.49 249.505 181.486C248.421 180.461 245.742 177.991 249.155 179.414C252.266 180.71 254.93 181.358 258.352 180.85C262.265 180.27 265.914 178.582 269.772 177.729C267.657 179.616 265.557 181.522 263.438 183.404C261.199 185.392 259.505 185.762 256.661 186.373ZM257.144 201.552C252.515 205.104 243.197 204.72 246.333 196.905C246.81 195.718 247.476 194.601 248.248 193.589C248.505 193.252 248.962 192.552 249.329 192.325C250.353 191.692 250.069 191.615 251.053 192.671C251.902 193.582 258.538 201.023 257.144 201.552ZM255.772 187.973C256.195 187.832 257.982 186.776 258.389 187.36C258.801 187.952 255.299 189.999 255.772 187.973ZM289.466 242.144C288.426 244.684 280.097 248.36 281.649 243.241C282.336 240.974 282.984 239.257 285.577 239.084C287.073 238.986 290.383 239.908 289.466 242.144ZM304.407 207.732C305.778 205.697 310.306 202.944 312.239 205.98C313.17 207.443 310.91 208.192 309.543 207.816C308.81 207.613 308.209 207.166 307.411 207.132C306.385 207.089 305.383 207.91 304.407 207.732ZM308.042 209.753C307.109 210.716 301.486 215.541 300.576 214.797C302.412 212.12 304.52 209.13 308.042 209.753ZM298.858 258.58C296.906 258.693 297.881 255.693 298.069 254.493C298.542 255.329 301.027 258.456 298.858 258.58ZM303.819 253.202C303.188 252.056 301.486 250.35 301.87 248.875C302.165 247.748 304.821 246.232 305.934 246.879C307.411 247.738 305.27 253.393 303.819 253.202ZM350.151 241.183C349.316 244.118 348.45 243.361 345.831 243.929C343.203 244.5 341.387 246.775 339.074 247.995C339.877 246.263 340.376 244.152 341.721 242.746C342.032 242.422 343.939 241.781 342.852 241.029C341.903 240.372 340.537 242.504 340.13 243.086C338.126 245.947 336.725 249.44 335.568 252.732C334.999 254.348 334.543 255.995 334.274 257.693C334.033 259.206 334.292 260.789 334.048 262.263C333.654 264.636 330.493 264.648 328.592 265.26C326.871 265.814 325.158 266.414 323.371 266.713C321.823 266.972 320.216 266.5 318.715 266.811C317.09 267.148 316.36 268.131 314.512 267.909C313.007 267.728 311.598 267.021 310.071 266.951C308.643 266.885 307.218 267.389 305.798 266.979C304.365 266.565 304.434 266.405 304.76 264.969C304.964 265.357 305.168 265.744 305.372 266.131C305.943 265.674 306.338 264.282 306.688 263.628C307.231 262.615 307.674 262.265 307.472 261.003C307.175 259.14 305.528 257.815 305.155 256.042C304.765 254.193 306.106 252.681 306.898 251.138C307.981 249.025 307.967 247.458 307.059 245.273C307.744 245.457 308.428 245.641 309.113 245.826C308.175 243.749 304.992 244.591 303.397 245.206C302.595 245.515 301.323 246.731 300.461 246.7C299.275 246.657 298.656 245.067 298.147 244.192C296.672 241.659 294.988 239.157 293.244 236.806C292.764 236.159 292.136 235.743 292.301 235.006C292.443 234.38 293.818 233.494 294.264 233.108C295.937 231.665 298.067 230.866 299.638 229.347C302.014 227.052 304.753 225.408 307.181 223.158C309.711 220.815 312.317 218.663 314.954 216.448C317.624 214.205 319.937 211.562 322.588 209.296C323.275 210.566 324.606 215.111 326.127 215.462C327.902 215.872 327.849 213.731 327.761 212.443C327.635 210.607 326.635 208.823 326.524 207.071C326.404 205.197 328.173 204.359 329.507 203.275C331.569 201.6 336.131 197.786 333.678 194.646C331.566 191.942 324.696 197.127 322.803 198.686C321.194 200.011 319.95 201.209 318.139 202.254C316.865 202.989 314.727 205.813 313.217 205.552C311.421 205.243 310.719 203.242 308.522 203.308C306.374 203.372 304.551 204.949 303.219 206.533C300.209 210.112 299.174 214.901 296.431 218.633C295.078 220.472 293.324 221.991 291.857 223.732C290.246 225.642 289.904 227.843 288.315 229.712C283.769 223.536 278.816 217.689 274.022 211.715C271.627 208.732 269.283 205.714 266.941 202.689C266.062 201.555 265.072 200.492 264.268 199.301C263.167 197.67 263.365 196.361 262.933 194.542C262.741 193.736 261.843 192.77 262.084 192C262.407 190.965 264.676 190.152 265.495 189.729C268.837 187.999 271.868 185.837 274.985 183.723C280.755 179.809 286.593 176.14 292.731 172.797C292.625 174.237 291.706 175.73 292.323 177.174C292.611 176.343 293.066 172.64 294.154 172.482C293.945 172.512 294.117 177.23 294.285 177.904C294.787 179.914 296.245 181.288 298.33 181.275C302.301 181.249 305.861 176.843 308.065 173.925C309.557 171.949 310.991 169.652 311.516 167.178C311.989 164.958 311.469 163.414 313.732 162.287C318.376 159.974 323.058 158.089 328.024 156.862C327.802 159.045 327.181 161.732 329.127 163.302C331.274 165.035 334.084 163.49 336.105 162.344C338.108 161.209 341.196 158.09 343.548 158.996C345.862 159.887 347.472 162.846 348.767 164.811C349.908 166.543 351.15 167.791 349.829 169.722C348.347 171.885 347.383 173.996 346.196 176.346C345.74 177.25 345.305 177.839 345.628 178.764C345.732 179.065 346.921 180.852 347.244 181.109C349.305 182.744 352.087 179.634 353.558 178.453C354.077 183.538 354.193 188.6 354.402 193.701C354.556 197.436 355.974 201.114 352.968 203.845C349.963 206.575 347.454 209.378 345.622 213.074C344.644 215.049 343.766 217.075 342.708 219.009C342.001 220.301 340.509 222.196 341.422 223.716C342.385 222.784 342.672 221.367 343.474 220.316C343.955 222.497 344.439 224.917 346.701 225.842C349.304 226.905 351.891 225.065 354.197 224.041C353.37 229.871 351.758 235.538 350.151 241.183ZM347.49 247.886C345.704 251.779 344.09 256.474 340.791 259.341C340.067 259.97 336.989 262.428 335.818 262.017C334.824 261.666 335.371 259.618 335.544 258.74C336.423 254.285 337.944 251.481 341.487 248.638C342.953 247.462 344.835 245.958 346.726 245.667C348.762 245.355 348.176 246.389 347.49 247.886ZM397.879 340.305C393.248 333.882 386.701 328.891 380.515 324.066C377.713 321.88 374.625 320.241 371.793 318.055C368.593 315.583 365.342 313.198 361.756 311.336C354.959 307.804 347.543 305.341 341.128 301.165C338 299.128 334.578 297.159 331.636 294.872C330.344 293.868 329.203 292.583 328.036 291.432C326.951 290.363 324.622 288.811 324.191 287.246C325.996 286.945 327.022 285.159 328.633 284.977C329.164 284.916 332.49 285.814 332.035 284.168C333.241 284.138 333.382 284.119 334.393 283.85C334.811 283.739 335.307 283.913 335.731 283.76C336.379 283.527 336.819 282.854 337.473 282.596C337.938 282.412 339.665 282.617 339.927 282.389C340.641 281.766 339.882 281.821 339.456 281.043C340.845 281.007 341.798 281.723 343.191 280.962C343.615 280.73 343.974 280.196 344.385 279.919C345.113 279.428 345.376 280.19 345.876 279.17C346.343 280.577 346.33 280.188 347.455 279.774C348.577 279.362 349.386 279.064 350.663 278.961C353.714 278.715 356.776 279.093 359.812 278.872C360.923 278.791 361.872 278.533 362.976 278.682C363.948 278.812 363.655 279.501 364.463 278.572C364.651 278.357 364.044 277.766 364.335 277.456C364.463 277.319 364.881 277.416 365.04 277.345C366.459 276.713 366.466 277.596 366.718 278.746C367.551 278.547 368.4 278.367 369.123 277.87C368.758 277.537 368.146 277.17 368.499 276.562C369.7 277.026 370.485 276.812 369.885 278.156C371.093 278.563 371.319 278.033 372.404 277.916C373.046 277.848 373.942 278.254 374.476 277.731C375.06 277.161 374.139 276.541 375.212 276.05C375.432 276.164 375.595 276.337 375.701 276.566C376.281 276.745 376.176 276.978 375.389 277.264C377.498 278.379 377.002 277.133 377.888 275.814C378.093 275.51 379.009 274.566 379.427 275.022C380.06 275.713 378.767 275.934 379.044 276.621C379.525 277.813 381.2 276.285 381.715 275.682C382.104 275.226 382.263 274.351 382.682 274.01C383.265 273.536 384.103 274.268 384.833 274.137C388.166 273.541 391.313 268.972 388.802 265.913C388.128 265.091 387.556 265.254 386.752 264.735C385.957 264.223 385.512 263.335 384.874 262.603C383.417 260.931 381.635 259.678 379.599 258.877C374.876 257.019 369.787 255.664 364.828 254.667C362.531 254.206 360.086 253.499 357.735 253.504C356.349 253.507 354.263 254.606 352.968 254.079C350.45 253.056 354.146 247.818 354.757 246.126C356.549 241.156 357.9 235.857 358.787 230.639C358.96 229.617 358.894 228.295 359.254 227.322C359.668 226.204 359.757 226.361 360.643 226.271C362.244 226.105 363.995 226.961 365.662 226.666C367.51 226.338 369.507 226.49 371.372 225.907C372.23 225.64 373.025 225.349 373.589 224.611C373.767 224.379 373.569 224.178 373.681 224.016C373.716 223.965 374.354 223.263 374.375 223.223C374.368 222.86 374.399 222.5 374.468 222.144C375.114 222.691 374.795 223.839 375.885 223.865C376.079 222.641 376.081 222.394 376.869 221.706C376.809 221.759 377.462 221.193 377.378 221.253C377.418 221.035 377.496 220.831 377.613 220.643C377.981 220.462 378.371 220.365 378.78 220.355C379.631 219.462 379.278 218.986 379.278 217.784C379.965 218.148 380.652 218.512 381.339 218.876C381.505 215.315 383.631 213.365 385.044 210.48C385.645 209.251 386.259 208.29 386.402 206.807C386.486 205.951 386.269 205.196 386.616 204.39C386.931 203.658 387.636 203.264 387.931 202.467C388.511 200.899 388.078 198.897 388.11 197.268C388.154 195.01 388.375 192.758 388.448 190.501C388.59 186.069 388.153 181.515 387.502 177.134C387.192 175.039 386.671 173.006 386.263 170.933C385.927 169.229 385.123 167.63 384.835 166.046C384.715 165.387 384.9 164.795 384.706 164.067C384.449 163.109 384.02 162.168 383.701 161.227C382.956 159.03 382.219 156.837 381.381 154.674C379.757 150.483 377.856 146.417 376.05 142.306C374.312 138.353 372.873 134.277 370.623 130.586C368.406 126.95 366.02 123.375 363.577 119.895C361.032 116.271 357.815 113.157 355.348 109.499C350.714 102.631 344.252 96.9717 337.49 92.2985C323.538 82.6547 308.461 73.0261 291.731 69.7195C289.209 69.2216 286.656 68.8759 284.086 68.8114C282.492 68.7711 279.85 69.5572 278.34 69.0069C276.649 68.3907 276.804 66.4541 276.381 64.9349C275.837 62.9822 274.609 61.7028 273.215 60.3221C271.747 58.8693 270.415 57.1717 268.585 56.1835C266.73 55.1828 264.542 54.8084 262.487 54.506C260.652 54.2354 257.911 54.4879 256.235 53.6726C254.708 52.9298 255.462 52.1563 256.891 52.7922C256.996 52.1493 257.08 51.734 257.485 51.2372C257.687 50.9872 258.646 50.637 258.669 50.4042C258.696 50.1312 257.892 49.3541 257.777 49.0022C257.53 48.2444 257.67 47.195 257.964 46.4838C259.405 47.7904 259.823 48.369 261.432 47.1201C262.112 46.5928 262.32 46.3603 263.108 46.0943C263.321 46.022 263.8 46.2451 263.986 46.1199C264.697 45.6423 264.043 45.7549 264.381 45.1904C264.296 45.3328 264.893 43.8325 264.865 44.1462C264.937 43.3471 265.169 43.5927 264.696 42.6108C263.769 40.69 261.41 40.6115 262.612 38.4194C263.085 37.5569 263.502 37.6428 263.635 36.3923C263.707 35.7199 263.618 34.949 263.615 34.2651C263.609 32.8664 263.868 31.8871 262.582 31.175C261.347 30.49 260.207 31.2415 259.706 29.5427C259.181 27.7601 259.71 25.4748 257.816 24.2542C256.432 23.3624 254.434 24.1248 252.905 23.6886C251.373 23.2519 249.964 21.6531 248.409 22.8806C247.304 23.753 246.718 25.898 244.636 24.7381C243.696 24.2149 243.179 22.4585 242.586 21.4735C241.643 19.9035 240.886 19.3364 239.433 20.8655C238.537 21.8087 236.649 24.1044 236.534 25.4099C236.407 26.851 237.64 27.4533 236.092 28.3058C234.552 29.1541 233.688 28.532 232.438 30.2538C231.198 31.962 232.158 32.9057 230.722 34.54C228.926 36.5829 227.971 37.4647 227.996 40.2171C228.014 42.1049 226.378 43.7356 227.332 45.5266C228.402 47.5338 231.523 48.3685 233.415 49.1854C232.783 50.3758 231.916 51.1389 232.654 52.3639C233.322 53.4735 235.21 53.7043 236.38 53.5027C237.168 53.3677 237.196 53.4891 237.815 52.9243C238.222 52.5549 237.665 52.0933 238.501 51.8887C239.39 51.6695 240.811 53.4483 241.389 53.8928C240.098 55.6015 236.552 55.921 234.676 56.7872C233.533 57.3153 232.482 58.0969 231.317 58.569C230.261 58.9973 228.976 58.8981 228.019 59.5607C226.365 60.7056 225.677 63.5416 224.663 65.209C223.516 67.0966 222.404 67.9729 220.202 68.365C217.456 68.8532 215.245 69.0498 212.684 70.2692C209.556 71.7588 206.474 73.3315 203.402 74.9369C198.448 77.5265 193.845 80.1846 189.245 83.3164C184.432 86.5938 179.75 90.0143 175.107 93.4383C170.513 96.8251 166.657 100.991 162.667 105.087C159.441 108.398 156.611 111.971 153.398 115.281C149.605 119.189 146.815 124.121 143.298 128.267C141.374 130.535 139.533 132.765 138.326 135.437C137.347 137.603 135.645 139.728 134.509 142C133.058 144.905 131.684 147.764 130.055 150.573C129.386 151.726 128.592 152.715 127.886 153.815C126.982 155.224 127.035 156.585 126.792 158.21C126.538 157.813 126.284 157.417 126.03 157.021C125.57 158.047 125.013 159.055 124.615 160.105C124.36 160.775 124.4 161.726 124.145 162.312C123.824 163.047 123.434 162.95 123.034 163.562C122.607 164.217 122.469 165.098 122.019 165.8C120.071 168.838 119.322 172.692 118.321 176.158C116.979 180.807 117.191 186.151 117.264 190.945C117.341 196.009 117.613 201.073 118.359 206.084C119.036 210.621 120.482 214.973 122.745 218.952C124.718 222.419 127.438 224.439 130.922 226.215C132.522 227.03 134.007 226.778 135.686 226.908C137.526 227.051 138.78 227.561 140.727 227.113C141.66 226.897 142.102 226.204 142.844 225.973C143.303 225.83 143.551 226.063 143.991 226.009C144.622 225.931 145.933 225.616 146.617 225.692C148.746 225.928 148.388 229.209 148.598 230.884C148.92 233.464 149.156 236.073 149.591 238.636C150.504 244.029 152.477 249.067 153.643 254.366C148.239 255.039 143.604 256.067 138.539 258.153C133.457 260.245 128.32 260.955 122.972 261.995C117.97 262.968 113.158 264.786 109.153 268.08C107.276 269.623 105.326 271.429 106.705 273.971C107.586 275.596 109.175 276.009 110.546 276.954C110.823 276.596 110.022 275.839 109.875 275.629C111.028 275.87 110.993 276.419 111.835 276.896C112.571 277.314 113.173 277.299 113.978 277.594C115.945 278.314 116.912 280.112 118.856 280.617C119.467 280.776 120.267 281.156 120.892 281.263C121.644 281.393 122.206 281.058 122.968 281.199C123.378 281.475 123.823 281.673 124.3 281.791C124.614 281.643 124.923 281.487 125.228 281.321C126.322 281.437 126.997 282.139 127.886 282.716C127.946 281.989 127.86 281.235 128.534 280.76C128.798 281.467 128.372 281.914 129.091 282.4C130.001 283.016 131.196 282.247 132.011 281.857C132.242 284.205 137.572 284.067 139.262 284.033C141.601 283.987 143.939 283.041 146.299 283.569C147.503 283.838 148.789 284.119 149.987 284.469C151.431 284.889 153.176 285.266 154.596 285.796C155.162 286.007 155.853 286.683 156.455 286.637C156.933 286.601 157.062 285.881 157.619 285.901C158.25 285.925 158.462 286.642 159.007 286.857C159.825 287.179 160.576 286.566 161.352 286.876C161.631 286.987 162.009 287.464 162.367 287.62C162.909 287.855 163.982 287.858 164.585 287.972C165.441 288.134 166.207 288.025 166.939 288.078C167.53 288.122 167.517 288.527 167.8 288.553C168.125 288.583 168.69 287.446 169.125 287.279C169.76 287.036 170.912 287.615 171.559 287.716C166.87 294.198 161.217 299.926 155.088 304.942C148.478 310.353 141.709 315.757 134.621 320.503C128.184 324.812 121.954 328.539 116.964 334.622C112.757 339.751 106.059 345.239 107.092 352.674C108.123 360.102 116.033 363.125 122.371 364.543C130.342 366.327 138.548 365.609 146.541 366.611C149.949 367.039 153.736 366.811 157.168 366.447C161.22 366.016 164.693 363.319 168.178 361.369C174.444 357.861 179.802 353.168 185.975 349.55C193.703 345.02 201.351 340.221 209.824 337.187C213.766 335.776 217.823 334.165 221.003 331.262C221.477 330.831 221.829 330.179 222.364 329.822C223.272 329.218 223.516 329.831 224.044 329.647C224.449 329.507 224.843 329.059 225.194 328.925C226.083 328.586 226.479 328.726 227.475 328.726C226.621 328.224 225.838 326.929 226.725 325.874C228.243 324.066 228.505 326.955 229.076 327.624C229.559 326.99 229.374 326.426 229.25 325.706C229.659 325.981 230.068 326.256 230.476 326.531C230.195 325.137 230.463 323.854 231.187 322.64C231.854 321.521 232.019 321.678 232.203 320.127C234.277 322.058 234.682 317.372 234.869 315.664C235.049 314.008 234.871 312.818 235.939 311.37C237.086 309.815 238.83 308.832 240.286 307.624C242.585 305.714 245.116 303.303 248.296 305.134C250.806 306.58 252.173 310.124 254.528 311.944C255.957 313.049 257.465 313.161 258.376 314.874C259.112 316.259 259.351 317.916 260.046 319.337C261.73 322.784 264.155 326.728 266.92 329.371C269.495 331.832 272.8 331.819 275.812 333.345C278.795 334.856 281.893 336.493 285.05 337.588C288.498 338.784 292.216 339.293 295.573 340.742C297.299 341.488 298.843 342.61 300.585 343.323C302.464 344.093 304.443 344.636 306.346 345.34C313.889 348.134 321.27 351.56 329.193 353.108C332.708 353.795 335.961 355.661 339.501 356.054C341.02 356.222 342.258 356.435 343.744 356.823C346.075 357.43 345.582 357.753 346.44 359.735C347.853 362.998 351.303 361.066 353.963 361.148C358.22 361.279 362.412 360.577 366.662 360.543C374.095 360.485 381.252 359.631 388.442 357.143C395.66 354.644 403.879 348.624 397.879 340.305Z" fill="black"/>
<path fill-rule="evenodd" clip-rule="evenodd" d="M311.961 85.3607C312.063 85.4646 312.302 85.5276 311.961 85.3607V85.3607Z" fill="black"/>
<path fill-rule="evenodd" clip-rule="evenodd" d="M181.035 224.337C182.649 222.669 189.518 223.006 190.037 225.99C190.616 229.321 184.478 234.353 182.232 235.763C179.342 237.579 175.814 237.919 176.326 233.361C176.713 229.918 178.736 226.712 181.035 224.337ZM186.707 220.902C186.916 221.826 185.373 221.512 184.948 221.292C184.747 220.873 186.497 219.976 186.707 220.902ZM174.862 227.011C176.232 227.137 177.802 224.895 178.836 224.132C179.292 224.852 176.28 228.81 175.948 229.713C175.121 231.97 174.66 234.821 175.789 237.072C179.087 243.649 187.527 234.256 189.638 230.975C191.115 228.681 192.137 225.836 190.051 223.587C189.308 222.786 188.081 222.564 187.391 221.802C186.483 220.802 187.198 219.509 185.372 219.727C184.112 219.878 182.599 221.037 181.374 221.457C179.898 221.962 178.57 222.486 177.282 223.422C176.991 223.634 173.17 226.856 174.862 227.011Z" fill="black"/>
<path fill-rule="evenodd" clip-rule="evenodd" d="M271.688 229.219C270.827 233.738 266.436 238.374 261.815 238.554C257.214 238.733 255.724 233.817 256.536 229.898C257.229 226.556 260.061 220.75 264.103 221.39C267.279 221.893 272.426 225.345 271.688 229.219ZM268.758 221.666C265.84 219.364 261.81 218.299 258.428 220.125C257.32 220.724 252.894 223.366 254.241 225.154C256.056 223.719 257.624 221.727 259.983 221.25C259.587 223.116 257.32 224.794 256.522 226.61C255.589 228.732 255.078 231.161 255.231 233.493C255.503 237.643 258.229 240.868 262.45 240.298C266.314 239.775 269.692 236.755 271.535 233.36C273.996 228.826 272.61 224.705 268.758 221.666Z" fill="black"/>
<path fill-rule="evenodd" clip-rule="evenodd" d="M241.665 239.492C239.588 242.628 236.42 245.578 232.758 246.547C228.017 247.801 229.349 243.805 230.766 240.938C232.019 238.403 234.168 234.042 237.44 234.066C238.551 234.073 240.62 234.621 241.593 235.226C243.512 236.421 242.759 237.841 241.665 239.492ZM237.24 232.598C237.986 231.752 241.287 228.121 241.729 230.951C242.677 229.83 241.929 228.9 240.715 228.782C239.252 228.639 237.651 230.302 236.595 231.128C234.421 232.827 232.747 234.567 231.306 236.949C229.717 239.576 225.667 245.511 229.212 248.117C233.043 250.934 238.62 245.732 241.02 243.049C242.554 241.333 244.587 238.813 244.003 236.296C243.286 233.205 239.761 232.881 237.24 232.598Z" fill="black"/>
<path fill-rule="evenodd" clip-rule="evenodd" d="M220.891 182.051C218.747 184.546 214.392 188.18 210.803 187.752C207.53 187.361 208.807 183.615 209.966 181.802C211.706 179.077 214.037 176.518 217.406 176.369C218.86 176.305 220.745 176.335 221.871 177.458C223.409 178.992 222.024 180.733 220.891 182.051ZM220.663 175.119C218.152 174.235 217.165 173.897 214.724 175.304C212.764 176.434 211.025 178.031 209.68 179.844C207.667 182.558 205.637 188.663 210.806 189.426C216.476 190.264 229.964 178.399 220.663 175.119Z" fill="black"/>
<path fill-rule="evenodd" clip-rule="evenodd" d="M228.392 190.695C226.76 192.395 224.724 193.781 222.4 194.254C223.383 192.017 225.578 187.129 228.182 186.448C229.381 186.133 230.748 186.545 230.65 187.938C230.578 188.946 229.035 190.025 228.392 190.695ZM230.491 184.781C229.141 184.091 229.567 183.619 227.995 184.161C226.757 184.587 225.195 185.328 224.164 186.18C223.601 186.646 221.85 188.296 222.064 189.135C222.453 190.661 223.759 188.323 224.102 187.873C224.691 188.363 221.681 192.754 221.502 193.477C220.835 196.169 222.907 196.453 224.937 195.573C227.675 194.386 235.783 187.485 230.491 184.781Z" fill="black"/>
<path fill-rule="evenodd" clip-rule="evenodd" d="M270.637 257.208C270.839 255.424 271.126 253.537 272.732 252.535C274.179 251.632 275.678 251.763 275.892 253.615C276.092 255.335 274.439 258.391 273.102 259.329C271.24 260.636 270.881 259.007 270.637 257.208ZM273.029 261.268C276.851 258.988 279.26 248.528 272.215 251.459C268.211 253.125 269.684 263.264 273.029 261.268Z" fill="black"/>
<path fill-rule="evenodd" clip-rule="evenodd" d="M240.386 217.895C240.989 216.635 241.678 216.217 242.901 215.665C242.086 216.45 241.253 217.175 240.386 217.895ZM241.268 214.79C240.402 215.676 238.418 217.026 238.696 218.548C238.95 219.937 239.99 219.857 240.933 219.424C242.911 218.517 244.012 214.547 246.082 214.175C243.787 212.691 243.251 212.76 241.268 214.79Z" fill="black"/>
<path fill-rule="evenodd" clip-rule="evenodd" d="M241.572 135.938C241.682 140.167 241.779 144.394 241.87 148.623C241.902 150.109 241.555 152.227 241.992 153.651C242.185 154.277 243.931 156.995 244.551 157.171C246.719 157.787 245.945 152.244 245.959 150.88C246.012 146.275 245.946 141.666 245.928 137.062C245.917 134.689 246.575 114.794 243.555 114.891C243.036 114.908 241.754 117.182 241.562 117.638C240.955 119.07 241.178 121.193 241.192 122.72C241.233 127.124 241.457 131.535 241.572 135.938Z" fill="black"/>
<path fill-rule="evenodd" clip-rule="evenodd" d="M259.852 148.264C260.022 149.433 259.932 151.382 261.223 151.988C262.346 152.515 262.776 151.888 263.196 150.909C264.161 148.655 263.813 145.21 263.795 142.88C263.76 138.262 263.25 133.664 262.898 129.064C262.742 127.045 263.064 125.018 262.817 122.906C262.708 121.979 262.6 118.25 260.915 118.424C259.392 118.581 259.529 122.489 259.446 123.495C258.755 131.877 258.635 139.897 259.852 148.264Z" fill="black"/>
<path fill-rule="evenodd" clip-rule="evenodd" d="M331.759 244.515C331.113 247.881 320.578 259.603 317.926 253.048C316.352 249.157 319.764 244.923 322.424 242.672C324.07 241.278 326.127 239.91 328.371 240.333C330.275 240.691 332.169 242.377 331.759 244.515ZM326.319 238.477C325.575 238.656 319.355 243.11 319.299 243.051C318.759 242.498 322.681 236.536 323.085 236.014C326.41 231.717 328.618 234.971 330.697 238.348C330.255 236.331 329.036 233.402 327 232.549C324.429 231.472 322.424 234.13 321.187 236.042C319.439 238.743 318.475 241.676 317.503 244.725C317.04 246.179 316.512 247.497 315.728 248.808C314.954 250.101 313.599 251.527 313.799 253.163C314.9 252.54 315.484 251.318 316.178 250.312C316.951 250.631 316.686 253.147 316.843 253.787C317.238 255.396 318.316 256.656 319.983 256.932C323.091 257.448 326.445 254.516 328.523 252.525C330.713 250.426 333.069 247.55 333.051 244.32C333.03 240.946 329.776 237.642 326.319 238.477Z" fill="black"/>
<path fill-rule="evenodd" clip-rule="evenodd" d="M334.744 184.386C332.981 187.138 329.887 190.436 326.613 191.076C324.21 191.545 322.625 189.729 323.591 187.277C324.406 185.205 327.184 183.896 329.005 182.985C330.449 182.262 337.184 180.578 334.744 184.386ZM333.447 179.885C329.835 179.746 326.922 182.408 324.229 184.534C324.837 182.092 326.213 179.436 328.15 177.848C330.786 175.685 333.286 177.028 336.061 178.109C335.376 175.906 332.303 175.113 330.345 175.424C327.869 175.818 326.089 177.974 324.837 180.059C323.344 182.546 322.833 185.477 321.075 187.81C320.27 188.878 315.287 192.875 316.415 194.508C318.276 192.493 320.138 190.478 322 188.463C322.482 190.844 323.014 193.556 325.996 193.325C328.377 193.139 331.093 191.075 332.834 189.497C335.082 187.46 339.508 180.119 333.447 179.885Z" fill="black"/>
<path fill-rule="evenodd" clip-rule="evenodd" d="M282.853 203.382C281.323 204.099 277.955 205.074 277.1 202.919C275.911 199.925 279.735 194.675 281.555 192.68C282.674 191.453 283.434 190.818 284.995 191.612C286.241 192.246 288.072 194.048 288.55 195.434C289.577 198.409 285.246 202.259 282.853 203.382ZM286.363 189.004C287.609 189.291 287.762 190.904 286.204 190.285C285.036 189.82 284.765 188.637 286.363 189.004ZM287.927 191.277C287.462 189.83 288.408 187.559 286.117 187.455C284.819 187.396 282.441 188.742 281.307 189.289C279.736 190.047 278.257 191.205 277.437 192.835C276.677 194.345 277.22 194.743 278.378 193.49C278.52 193.588 275.758 200.851 275.734 201.579C275.626 204.905 277.935 207.095 281.177 206.506C284.157 205.964 286.843 203.478 288.483 200.97C289.313 199.701 289.994 198.247 290.056 196.692C290.152 194.307 288.592 193.348 287.927 191.277Z" fill="black"/>
<path fill-rule="evenodd" clip-rule="evenodd" d="M306.486 184.647C303.878 183.432 300.964 187.588 302.222 190.057C303.871 193.294 311.918 187.179 306.486 184.647ZM303.376 189.293C302.833 188.309 306.518 186.858 307.101 186.833C306.809 187.377 304.12 190.643 303.376 189.293Z" fill="black"/>
<path fill-rule="evenodd" clip-rule="evenodd" d="M128.944 182.269C128.798 181.217 126.486 182.745 126.5 183.422C126.882 182.642 129.247 184.461 128.944 182.269Z" fill="black"/>
<path fill-rule="evenodd" clip-rule="evenodd" d="M255.375 102.794C258.318 102.574 254.568 87.4323 252.423 88.7712C250.098 90.2224 252.674 102.996 255.375 102.794Z" fill="black"/>
<path fill-rule="evenodd" clip-rule="evenodd" d="M260.871 95.724C263.628 96.1267 263.19 89.6701 261.707 88.5146C258.97 86.3816 257.523 95.2352 260.871 95.724Z" fill="black"/>
</svg>
