<svg width="40" height="40" viewBox="0 0 40 40" fill="none" xmlns="http://www.w3.org/2000/svg">
<circle cx="20" cy="20" r="19.5" stroke="black" stroke-opacity="0.18"/>
<path d="M20 11C18.22 11 16.4799 11.5278 14.9999 12.5168C13.5198 13.5057 12.3663 14.9113 11.6851 16.5558C11.0039 18.2004 10.8257 20.01 11.1729 21.7558C11.5202 23.5016 12.3774 25.1053 13.636 26.364C14.8947 27.6226 16.4984 28.4798 18.2442 28.8271C19.99 29.1743 21.7996 28.9961 23.4442 28.3149C25.0887 27.6337 26.4943 26.4802 27.4832 25.0001C28.4722 23.5201 29 21.78 29 20C29 19.54 28.96 19.08 28.9 18.64C28.4003 19.3407 27.7401 19.9115 26.9746 20.3047C26.2091 20.6978 25.3606 20.902 24.5 20.9C23.3552 20.9 22.24 20.5364 21.3152 19.8617C20.3904 19.1869 19.7038 18.2358 19.3545 17.1456C19.0052 16.0554 19.0112 14.8824 19.3717 13.7959C19.7321 12.7093 20.4284 11.7653 21.36 11.1C20.92 11.04 20.46 11 20 11Z" fill="black"/>
</svg>
