<svg width="40" height="40" viewBox="0 0 40 40" fill="none" xmlns="http://www.w3.org/2000/svg">
<circle cx="20" cy="20" r="19.5" stroke="white" stroke-opacity="0.18"/>
<path d="M20 15C17.24 15 15 17.24 15 20C15 22.76 17.24 25 20 25C22.76 25 25 22.76 25 20C25 17.24 22.76 15 20 15ZM10 21H12C12.55 21 13 20.55 13 20C13 19.45 12.55 19 12 19H10C9.45 19 9 19.45 9 20C9 20.55 9.45 21 10 21ZM28 21H30C30.55 21 31 20.55 31 20C31 19.45 30.55 19 30 19H28C27.45 19 27 19.45 27 20C27 20.55 27.45 21 28 21ZM19 10V12C19 12.55 19.45 13 20 13C20.55 13 21 12.55 21 12V10C21 9.45 20.55 9 20 9C19.45 9 19 9.45 19 10ZM19 28V30C19 30.55 19.45 31 20 31C20.55 31 21 30.55 21 30V28C21 27.45 20.55 27 20 27C19.45 27 19 27.45 19 28ZM13.99 12.58C13.8975 12.4873 13.7876 12.4137 13.6666 12.3636C13.5457 12.3134 13.416 12.2876 13.285 12.2876C13.154 12.2876 13.0243 12.3134 12.9034 12.3636C12.7824 12.4137 12.6725 12.4873 12.58 12.58C12.4873 12.6725 12.4137 12.7824 12.3636 12.9034C12.3134 13.0243 12.2876 13.154 12.2876 13.285C12.2876 13.416 12.3134 13.5457 12.3636 13.6666C12.4137 13.7876 12.4873 13.8975 12.58 13.99L13.64 15.05C14.03 15.44 14.67 15.44 15.05 15.05C15.43 14.66 15.44 14.02 15.05 13.64L13.99 12.58ZM26.36 24.95C26.2675 24.8573 26.1576 24.7837 26.0366 24.7336C25.9157 24.6834 25.786 24.6576 25.655 24.6576C25.524 24.6576 25.3943 24.6834 25.2734 24.7336C25.1524 24.7837 25.0425 24.8573 24.95 24.95C24.8573 25.0425 24.7837 25.1524 24.7336 25.2734C24.6834 25.3943 24.6576 25.524 24.6576 25.655C24.6576 25.786 24.6834 25.9157 24.7336 26.0366C24.7837 26.1576 24.8573 26.2675 24.95 26.36L26.01 27.42C26.4 27.81 27.04 27.81 27.42 27.42C27.5127 27.3275 27.5863 27.2176 27.6364 27.0966C27.6866 26.9757 27.7124 26.846 27.7124 26.715C27.7124 26.584 27.6866 26.4543 27.6364 26.3334C27.5863 26.2124 27.5127 26.1025 27.42 26.01L26.36 24.95ZM27.42 13.99C27.5127 13.8975 27.5863 13.7876 27.6364 13.6666C27.6866 13.5457 27.7124 13.416 27.7124 13.285C27.7124 13.154 27.6866 13.0243 27.6364 12.9034C27.5863 12.7824 27.5127 12.6725 27.42 12.58C27.3275 12.4873 27.2176 12.4137 27.0966 12.3636C26.9757 12.3134 26.846 12.2876 26.715 12.2876C26.584 12.2876 26.4543 12.3134 26.3334 12.3636C26.2124 12.4137 26.1025 12.4873 26.01 12.58L24.95 13.64C24.56 14.03 24.56 14.67 24.95 15.05C25.34 15.43 25.98 15.44 26.36 15.05L27.42 13.99ZM15.05 26.36C15.1427 26.2675 15.2163 26.1576 15.2664 26.0366C15.3166 25.9157 15.3424 25.786 15.3424 25.655C15.3424 25.524 15.3166 25.3943 15.2664 25.2734C15.2163 25.1524 15.1427 25.0425 15.05 24.95C14.9575 24.8573 14.8476 24.7837 14.7266 24.7336C14.6057 24.6834 14.476 24.6576 14.345 24.6576C14.214 24.6576 14.0843 24.6834 13.9634 24.7336C13.8424 24.7837 13.7325 24.8573 13.64 24.95L12.58 26.01C12.19 26.4 12.19 27.04 12.58 27.42C12.97 27.8 13.61 27.81 13.99 27.42L15.05 26.36V26.36Z" fill="white"/>
</svg>
