<svg width="166" height="23" viewBox="0 0 166 23" fill="none" xmlns="http://www.w3.org/2000/svg">
<path d="M0.825 18V0.499999H6.025C8.55833 0.499999 10.65 1.275 12.3 2.825C13.9667 4.375 14.8 6.51667 14.8 9.25C14.8 11.9833 13.9667 14.125 12.3 15.675C10.65 17.225 8.55833 18 6.025 18H0.825ZM3.075 15.95H5.95C7.8 15.95 9.34167 15.3917 10.575 14.275C11.825 13.1583 12.45 11.4833 12.45 9.25C12.45 7.73333 12.1333 6.45833 11.5 5.425C10.8833 4.375 10.1 3.63333 9.15 3.2C8.2 2.75 7.13333 2.525 5.95 2.525H3.075V15.95ZM22.2463 5.2C23.7963 5.2 25.0463 5.625 25.9963 6.475C26.9463 7.325 27.4213 8.475 27.4213 9.925V18H25.3213V15.85C24.9546 16.5667 24.388 17.1417 23.6213 17.575C22.8713 17.9917 22.038 18.2 21.1213 18.2C19.8713 18.2 18.8463 17.8583 18.0463 17.175C17.263 16.475 16.8713 15.575 16.8713 14.475C16.8713 12.1083 18.8713 10.725 22.8713 10.325L25.3213 10.05V9.8C25.3213 8.93333 25.038 8.25 24.4713 7.75C23.9213 7.23333 23.1796 6.975 22.2463 6.975C21.3796 6.975 20.663 7.21667 20.0963 7.7C19.5296 8.18333 19.2046 8.85 19.1213 9.7L17.1463 9.325C17.3296 8.075 17.888 7.075 18.8213 6.325C19.7713 5.575 20.913 5.2 22.2463 5.2ZM21.4463 16.45C22.663 16.45 23.613 16.075 24.2963 15.325C24.9796 14.575 25.3213 13.5667 25.3213 12.3V11.7L22.8713 11.975C20.288 12.2583 18.9963 13.0833 18.9963 14.45C18.9963 15.0333 19.2213 15.5167 19.6713 15.9C20.138 16.2667 20.7296 16.45 21.4463 16.45ZM38.7613 5.4H40.9363L34.3363 22.55H32.1613L33.9863 17.825L29.0613 5.4H31.3613L35.0613 15.05L38.7613 5.4ZM52.8457 16.375C51.6457 17.5917 50.1124 18.2 48.2457 18.2C46.379 18.2 44.8457 17.5917 43.6457 16.375C42.4457 15.1417 41.8457 13.5833 41.8457 11.7C41.8457 9.81667 42.4457 8.26667 43.6457 7.05C44.8457 5.81667 46.379 5.2 48.2457 5.2C50.1124 5.2 51.6457 5.81667 52.8457 7.05C54.0624 8.26667 54.6707 9.81667 54.6707 11.7C54.6707 13.5833 54.0624 15.1417 52.8457 16.375ZM45.1957 15.025C45.979 15.875 46.9957 16.3 48.2457 16.3C49.4957 16.3 50.5124 15.875 51.2957 15.025C52.079 14.1583 52.4707 13.05 52.4707 11.7C52.4707 10.35 52.079 9.25 51.2957 8.4C50.5124 7.53333 49.4957 7.1 48.2457 7.1C46.9957 7.1 45.979 7.53333 45.1957 8.4C44.4124 9.25 44.0207 10.35 44.0207 11.7C44.0207 13.05 44.4124 14.1583 45.1957 15.025ZM75.4953 18L73.7703 13.55H65.9953L64.2703 18H61.9203L68.8453 0.499999H70.9203L77.8703 18H75.4953ZM66.7703 11.525H72.9953L69.8953 3.5L66.7703 11.525ZM81.7721 18L77.9221 5.4H80.0971L82.8221 15.025L85.7721 5.4H87.8221L90.7721 15.025L93.4721 5.4H95.6971L91.8221 18H89.7471L86.7971 8.425L83.8471 18H81.7721ZM108.021 16.375C106.821 17.5917 105.288 18.2 103.421 18.2C101.555 18.2 100.021 17.5917 98.8215 16.375C97.6215 15.1417 97.0215 13.5833 97.0215 11.7C97.0215 9.81667 97.6215 8.26667 98.8215 7.05C100.021 5.81667 101.555 5.2 103.421 5.2C105.288 5.2 106.821 5.81667 108.021 7.05C109.238 8.26667 109.846 9.81667 109.846 11.7C109.846 13.5833 109.238 15.1417 108.021 16.375ZM100.371 15.025C101.155 15.875 102.171 16.3 103.421 16.3C104.671 16.3 105.688 15.875 106.471 15.025C107.255 14.1583 107.646 13.05 107.646 11.7C107.646 10.35 107.255 9.25 106.471 8.4C105.688 7.53333 104.671 7.1 103.421 7.1C102.171 7.1 101.155 7.53333 100.371 8.4C99.5882 9.25 99.1965 10.35 99.1965 11.7C99.1965 13.05 99.5882 14.1583 100.371 15.025ZM118.791 18.2C117.874 18.2 117.032 18.0083 116.266 17.625C115.499 17.2417 114.974 16.7583 114.691 16.175V18H112.566V0.3H114.691V7.2C115.091 6.6 115.666 6.11667 116.416 5.75C117.182 5.38333 117.982 5.2 118.816 5.2C120.716 5.2 122.199 5.80833 123.266 7.025C124.332 8.225 124.866 9.78333 124.866 11.7C124.866 13.6167 124.324 15.1833 123.241 16.4C122.174 17.6 120.691 18.2 118.791 18.2ZM115.616 15.05C116.366 15.8833 117.357 16.3 118.591 16.3C119.824 16.3 120.816 15.8833 121.566 15.05C122.316 14.2 122.691 13.0833 122.691 11.7C122.691 10.3167 122.316 9.20833 121.566 8.375C120.816 7.525 119.824 7.1 118.591 7.1C117.357 7.1 116.366 7.525 115.616 8.375C114.882 9.20833 114.516 10.3167 114.516 11.7C114.516 13.0833 114.882 14.2 115.616 15.05ZM138.98 11.125C138.98 11.475 138.964 11.8 138.93 12.1H128.98C129.047 13.3667 129.447 14.3917 130.18 15.175C130.93 15.9417 131.872 16.325 133.005 16.325C133.972 16.325 134.772 16.1083 135.405 15.675C136.039 15.2417 136.447 14.6333 136.63 13.85L138.63 14.325C138.314 15.5417 137.655 16.4917 136.655 17.175C135.672 17.8583 134.455 18.2 133.005 18.2C131.155 18.2 129.664 17.575 128.53 16.325C127.414 15.075 126.855 13.5333 126.855 11.7C126.855 9.85 127.405 8.30833 128.505 7.075C129.622 5.825 131.105 5.2 132.955 5.2C134.772 5.2 136.23 5.775 137.33 6.925C138.43 8.05833 138.98 9.45833 138.98 11.125ZM129.105 10.325H136.73C136.63 9.325 136.247 8.51667 135.58 7.9C134.914 7.28333 134.039 6.975 132.955 6.975C131.972 6.975 131.139 7.275 130.455 7.875C129.772 8.45833 129.322 9.275 129.105 10.325ZM150.291 18L145.541 11.8L143.866 13.325V18H141.716V0.3H143.866V10.525L149.691 5.4H152.516L147.116 10.375L152.941 18H150.291ZM165.581 5.4V18H163.456V15.625C163.006 16.4083 162.406 17.0333 161.656 17.5C160.906 17.9667 160.065 18.2 159.131 18.2C157.815 18.2 156.731 17.7917 155.881 16.975C155.048 16.1583 154.631 15.0833 154.631 13.75V5.4H156.756V13.35C156.756 14.2167 157.015 14.925 157.531 15.475C158.048 16.0083 158.74 16.275 159.606 16.275C160.79 16.275 161.723 15.8 162.406 14.85C163.106 13.8833 163.456 12.575 163.456 10.925V5.4H165.581Z" fill="black"/>
</svg>
